<svg xmlns="http://www.w3.org/2000/svg" viewBox="0 0 51 51"><defs><style>.cls-1{fill:none;stroke:#666;stroke-miterlimit:10;}.cls-2{fill:#666;}</style></defs><title>Recurso 7</title><g id="Capa_2" data-name="Capa 2"><g id="Capa_1-2" data-name="Capa 1"><circle class="cls-1" cx="25.5" cy="25.5" r="25"/><polyline class="cls-1" points="46.5 29.38 26.41 10.21 4.5 29.38"/><polyline class="cls-1" points="41.48 37.14 41.48 29.84 25.96 17.05 10.44 29.84 10.44 37.14"/><path class="cls-2" d="M22.62,30.88h6.26a2.87,2.87,0,0,1,2.87,2.87v5.13a0,0,0,0,1,0,0h-12a0,0,0,0,1,0,0V33.74A2.87,2.87,0,0,1,22.62,30.88Z"/><circle class="cls-2" cx="25.75" cy="25.88" r="3"/><polygon class="cls-1" points="36.75 19.88 38.75 20.88 38.75 14.88 36.75 14.88 36.75 19.88"/></g></g></svg>