<svg xmlns="http://www.w3.org/2000/svg" viewBox="0 0 51 51"><defs><style>.cls-1,.cls-2{fill:none;stroke:#666;stroke-miterlimit:10;}.cls-2{stroke-width:0.75px;}</style></defs><title>Recurso 6</title><g id="Capa_2" data-name="Capa 2"><g id="Capa_1-2" data-name="Capa 1"><circle class="cls-1" cx="25.5" cy="25.5" r="25"/><polyline class="cls-1" points="46.5 29.38 26.41 10.21 4.5 29.38"/><polyline class="cls-1" points="41.48 37.14 41.48 29.84 25.96 17.05 10.44 29.84 10.44 37.14"/><path class="cls-2" d="M25.63,24.4a2.78,2.78,0,0,0-2.2,2.19,2.73,2.73,0,0,0,1.33,2.87V34.4H22a.71.71,0,0,0-.71.71v1.44a.6.6,0,0,0,.6.59h2.83v3a.67.67,0,0,0,.68.68H26.8a.69.69,0,0,0,.7-.69V29.46a2.74,2.74,0,0,0-1.87-5.06ZM26,28a.92.92,0,1,1,.92-.91A.91.91,0,0,1,26,28Z"/><polygon class="cls-1" points="36.75 19.88 38.75 20.88 38.75 14.88 36.75 14.88 36.75 19.88"/></g></g></svg>