<svg xmlns="http://www.w3.org/2000/svg" xmlns:xlink="http://www.w3.org/1999/xlink" viewBox="0 0 60 60"><defs><style>.cls-1{fill:url(#Degradado_sin_nombre_9);}.cls-2{fill:#f2f2f2;}.cls-3{fill:none;stroke:#ffb800;stroke-miterlimit:10;}.cls-4{fill:#ffb800;}</style><radialGradient id="Degradado_sin_nombre_9" cx="30" cy="30" r="30" gradientUnits="userSpaceOnUse"><stop offset="0" stop-color="#0058aa"/><stop offset="1" stop-color="#00447e"/></radialGradient></defs><title>Recurso 5</title><g id="Capa_2" data-name="Capa 2"><g id="Capa_1-2" data-name="Capa 1"><circle class="cls-1" cx="30" cy="30" r="30"/><path class="cls-2" d="M26.74,31.29a3.82,3.82,0,0,1-.47,1.27,4,4,0,0,1-.88,1,4.19,4.19,0,0,1-1.15.69,3.23,3.23,0,0,1-1.29.26H20.29a3.08,3.08,0,0,1-1.11-.2,2.61,2.61,0,0,1-.86-.56l-.87,5a.69.69,0,0,1-.25.41.66.66,0,0,1-.44.18.49.49,0,0,1-.47-.59l2.13-12.11a4.12,4.12,0,0,1,.48-1.28,4.28,4.28,0,0,1,.87-1,4.66,4.66,0,0,1,1.15-.7,3.53,3.53,0,0,1,1.32-.26h2.68a2.93,2.93,0,0,1,1.2.25,2.53,2.53,0,0,1,.91.71,2.77,2.77,0,0,1,.54,2.3Zm-.33-4.65a1.74,1.74,0,0,0,0-.82,1.71,1.71,0,0,0-.33-.66,1.62,1.62,0,0,0-.58-.45,1.86,1.86,0,0,0-.79-.17H22a2.21,2.21,0,0,0-.84.17,2.62,2.62,0,0,0-.73.45,2.39,2.39,0,0,0-.56.66,2.28,2.28,0,0,0-.31.82l-.83,4.65a1.74,1.74,0,0,0,0,.82,1.58,1.58,0,0,0,.33.66,1.66,1.66,0,0,0,.59.45,1.83,1.83,0,0,0,.79.16h2.65a2.2,2.2,0,0,0,.84-.16,2.67,2.67,0,0,0,.74-.45,2.73,2.73,0,0,0,.56-.66,2.48,2.48,0,0,0,.31-.82Z"/><path class="cls-2" d="M28.94,34.54a.46.46,0,0,1-.37-.16.47.47,0,0,1-.11-.4.68.68,0,0,1,.24-.39.67.67,0,0,1,.43-.17h5.25a2.37,2.37,0,0,0,.82-.15,2.6,2.6,0,0,0,.72-.43,2.42,2.42,0,0,0,.55-.64,2.1,2.1,0,0,0,.29-.79,2,2,0,0,0,0-.78,1.68,1.68,0,0,0-.32-.64,1.56,1.56,0,0,0-.57-.44,1.87,1.87,0,0,0-.76-.15h-2.9a2.6,2.6,0,0,1-1.13-.24,2.39,2.39,0,0,1-.85-.64,2.29,2.29,0,0,1-.48-1,2.85,2.85,0,0,1,0-1.17,3.31,3.31,0,0,1,.43-1.17,4,4,0,0,1,.82-1A4.53,4.53,0,0,1,32,23.62a3.23,3.23,0,0,1,1.22-.24h4.87a.44.44,0,0,1,.36.16.42.42,0,0,1,.1.38.74.74,0,0,1-.23.4.61.61,0,0,1-.42.16H33.05a2.07,2.07,0,0,0-.77.15,2.22,2.22,0,0,0-.68.4,2.56,2.56,0,0,0-.53.61,2,2,0,0,0-.28.75,1.83,1.83,0,0,0,0,.74,1.31,1.31,0,0,0,.3.6,1.53,1.53,0,0,0,.55.41,1.6,1.6,0,0,0,.73.16h2.9a2.91,2.91,0,0,1,1.15.23,2.39,2.39,0,0,1,.9.68,2.24,2.24,0,0,1,.5,1,3.16,3.16,0,0,1,0,1.19,3.84,3.84,0,0,1-.46,1.22,4,4,0,0,1-.84,1,4.21,4.21,0,0,1-1.11.67,3.26,3.26,0,0,1-1.26.25Z"/><path class="cls-2" d="M42.68,34.54a2.78,2.78,0,0,1-1.24-.26A2.61,2.61,0,0,1,40,32.54a2.71,2.71,0,0,1,0-1.27l.83-4.63a3.87,3.87,0,0,1,.47-1.28,3.94,3.94,0,0,1,.89-1,4.72,4.72,0,0,1,1.16-.7,3.49,3.49,0,0,1,1.32-.26h2.69a2.75,2.75,0,0,1,2.16,1,2.49,2.49,0,0,1,.53,1,3,3,0,0,1,0,1.28L49.6,29a.68.68,0,0,1-.64.56H41.37l-.31,1.68a1.79,1.79,0,0,0,0,.83,1.74,1.74,0,0,0,.35.69,1.76,1.76,0,0,0,.61.47,2,2,0,0,0,.82.16h5.25a.41.41,0,0,1,.35.17.48.48,0,0,1,.09.39.67.67,0,0,1-.22.39.61.61,0,0,1-.41.15Zm1.76-10.06a2.38,2.38,0,0,0-.88.17,2.53,2.53,0,0,0-.77.47,3,3,0,0,0-.58.69,2.35,2.35,0,0,0-.32.83l-.34,1.83h7.06l.33-1.83a1.78,1.78,0,0,0,0-.83,1.88,1.88,0,0,0-.35-.69,1.76,1.76,0,0,0-.61-.47,2,2,0,0,0-.82-.17Z"/><polyline class="cls-3" points="15.89 27.92 8.21 27.92 5.79 23.61 0.74 23.61"/><circle class="cls-4" cx="4.6" cy="31.93" r="1.19"/><circle class="cls-4" cx="6.39" cy="20.94" r="1.19"/><circle class="cls-4" cx="1.93" cy="35.79" r="1.19"/><circle class="cls-4" cx="5.79" cy="34.9" r="1.19"/><circle class="cls-4" cx="4.6" cy="16.49" r="1.19"/><polyline class="cls-3" points="12.29 27.92 8.46 31.93 4.31 31.93"/><line class="cls-3" x1="0.15" y1="27.77" x2="8.17" y2="27.77"/></g></g></svg>